<svg width="24" height="24" viewBox="0 0 24 24" fill="none" xmlns="http://www.w3.org/2000/svg">
<path d="M14 13H15.5V15.82L17.94 17.23L17.19 18.53L14 16.69V13ZM18 8H4V19H8.67C8.24 18.09 8 17.07 8 16C8 14.1435 8.7375 12.363 10.0503 11.0503C11.363 9.7375 13.1435 9 15 9C16.07 9 17.09 9.24 18 9.67V8ZM4 21C2.89 21 2 20.1 2 19V5C2 3.89 2.89 3 4 3H5V1H7V3H15V1H17V3H18C18.5304 3 19.0391 3.21071 19.4142 3.58579C19.7893 3.96086 20 4.46957 20 5V11.1C21.24 12.36 22 14.09 22 16C22 17.8565 21.2625 19.637 19.9497 20.9497C18.637 22.2625 16.8565 23 15 23C13.09 23 11.36 22.24 10.1 21H4ZM15 11.15C13.7137 11.15 12.4801 11.661 11.5705 12.5705C10.661 13.4801 10.15 14.7137 10.15 16C10.15 18.68 12.32 20.85 15 20.85C15.6369 20.85 16.2676 20.7246 16.856 20.4808C17.4444 20.2371 17.9791 19.8798 18.4295 19.4295C18.8798 18.9791 19.2371 18.4444 19.4808 17.856C19.7246 17.2676 19.85 16.6369 19.85 16C19.85 13.32 17.68 11.15 15 11.15Z" fill="black"/>
</svg>
