<svg width="24" height="24" viewBox="0 0 24 24" fill="none" xmlns="http://www.w3.org/2000/svg">
<path d="M7.99999 3.27999L6.59999 1.85999L5.73999 2.56999L7.15999 3.99999M16.47 18.39C15.26 19.39 13.7 20 12 20C10.1435 20 8.363 19.2625 7.05025 17.9497C5.73749 16.637 4.99999 14.8565 4.99999 13C4.99999 11.3 5.60999 9.73998 6.60999 8.52998M2.91999 2.28999L1.64999 3.56999L2.99999 4.89999L1.86999 5.82999L3.28999 7.24999L4.39999 6.30999L5.19999 7.10999C3.82999 8.68999 2.99999 10.75 2.99999 13C2.99999 15.3869 3.94821 17.6761 5.63603 19.3639C7.32386 21.0518 9.61305 22 12 22C14.25 22 16.31 21.17 17.89 19.8L20.09 22L21.36 20.73L3.88999 3.26999L2.91999 2.28999ZM22 5.71999L17.4 1.85999L16.11 3.38999L20.71 7.24999L22 5.71999ZM12 5.99999C13.8565 5.99999 15.637 6.73748 16.9497 8.05024C18.2625 9.36299 19 11.1435 19 13C19 13.84 18.84 14.65 18.57 15.4L20.09 16.92C20.67 15.73 21 14.41 21 13C21 10.613 20.0518 8.32385 18.364 6.63602C16.6761 4.9482 14.3869 3.99999 12 3.99999C10.59 3.99999 9.26999 4.32999 8.07999 4.90999L9.59999 6.42999C10.35 6.15999 11.16 5.99999 12 5.99999Z" fill="black"/>
</svg>
