<svg width="24" height="25" viewBox="0 0 24 25" fill="none" xmlns="http://www.w3.org/2000/svg">
<path d="M7.5 5.00002C7.9 4.60002 8.5 4.60002 8.9 5.00002L11.8 8.00002C11 8.40002 10.6 8.60002 10.2 9.20002L7.5 6.50002C7.1 6.10002 7.1 5.40002 7.5 5.00002ZM6.3 8.20002C6.7 7.80002 7.3 7.80002 7.7 8.20002L9.6 10.2C9.4 10.8 9.3 11.5 9.4 12H8.6L6.3 9.60003C5.9 9.20003 5.9 8.60002 6.3 8.20002ZM18.2 15.5L12.5 10L12.2 10.1C11.5 10.5 11.2 11.4 11.5 12.1L12.4 14H4.4C3.9 14 3.4 14.5 3.4 15C3.4 15.5 3.9 16 4.4 16H10V17H3C2.5 17 2 17.5 2 18C2 18.5 2.5 19 3 19H10V20H4C3.5 20 3 20.5 3 21C3 21.5 3.5 22 4 22H10V23H5.5C5 23 4.5 23.5 4.5 24C4.5 24.5 5 25 5.5 25H16.5C17.9 25 19 23.9 19 22.5V17.3C19 16.6 18.7 15.9 18.2 15.5ZM17 22C17 22.5 16.5 23 16 23H12V16H14V14.2L16.7 16.7C16.9 16.9 17 17.2 17 17.4V22ZM22 12.3C22 13 21.7 13.6 21.2 14.1L20.3 14.9C20.1 14.6 19.9 14.3 19.6 14L19 13.4L19.7 12.7C19.9 12.5 20 12.2 20 12V8.30002L18.7 9.50002L17.3 8.00002L15.4 10L12.7 7.60002L8.9 3.60002C8.5 3.20002 8.5 2.60002 8.9 2.20002C9.3 1.80002 9.9 1.80002 10.3 2.20002L15.1 7.30002L15.8 6.60002L12 2.60002C11.6 2.20002 11.6 1.60002 12 1.20002C12.4 0.800024 13 0.800024 13.4 1.20002L18.9 7.00002L19.6 5.00002C20.1 4.40002 21 4.00002 21.7 4.20002L22 4.30002V12.3Z" fill="black"/>
</svg>
