<svg width="25" height="24" viewBox="0 0 25 24" fill="none" xmlns="http://www.w3.org/2000/svg">
<path d="M5 14L5.5 14.07L10.07 9.5C9.89 8.85 10.06 8.11 10.59 7.59C11.37 6.8 12.63 6.8 13.41 7.59C13.94 8.11 14.11 8.85 13.93 9.5L16.5 12.07L17 12C17.18 12 17.35 12 17.5 12.07L21.07 8.5C21 8.35 21 8.18 21 8C21 7.46957 21.2107 6.96086 21.5858 6.58579C21.9609 6.21071 22.4696 6 23 6C23.5304 6 24.0391 6.21071 24.4142 6.58579C24.7893 6.96086 25 7.46957 25 8C25 8.53043 24.7893 9.03914 24.4142 9.41421C24.0391 9.78929 23.5304 10 23 10C22.82 10 22.65 10 22.5 9.93L18.93 13.5C19 13.65 19 13.82 19 14C19 14.5304 18.7893 15.0391 18.4142 15.4142C18.0391 15.7893 17.5304 16 17 16C16.4696 16 15.9609 15.7893 15.5858 15.4142C15.2107 15.0391 15 14.5304 15 14L15.07 13.5L12.5 10.93C12.18 11 11.82 11 11.5 10.93L6.93 15.5L7 16C7 16.5304 6.78929 17.0391 6.41421 17.4142C6.03914 17.7893 5.53043 18 5 18C4.46957 18 3.96086 17.7893 3.58579 17.4142C3.21071 17.0391 3 16.5304 3 16C3 15.4696 3.21071 14.9609 3.58579 14.5858C3.96086 14.2107 4.46957 14 5 14Z" fill="black"/>
</svg>
