<svg width="24" height="24" viewBox="0 0 24 24" fill="none" xmlns="http://www.w3.org/2000/svg">
<path d="M12 7.99994C10.9391 7.99994 9.92172 8.42137 9.17158 9.17151C8.42143 9.92166 8 10.9391 8 11.9999C8 13.0608 8.42143 14.0782 9.17158 14.8284C9.92172 15.5785 10.9391 15.9999 12 15.9999C13.0609 15.9999 14.0783 15.5785 14.8284 14.8284C15.5786 14.0782 16 13.0608 16 11.9999C16 10.9391 15.5786 9.92166 14.8284 9.17151C14.0783 8.42137 13.0609 7.99994 12 7.99994ZM12 17.9999C10.4087 17.9999 8.88258 17.3678 7.75736 16.2426C6.63214 15.1174 6 13.5912 6 11.9999C6 10.4086 6.63214 8.88252 7.75736 7.7573C8.88258 6.63208 10.4087 5.99994 12 5.99994C13.5913 5.99994 15.1174 6.63208 16.2426 7.7573C17.3679 8.88252 18 10.4086 18 11.9999C18 13.5912 17.3679 15.1174 16.2426 16.2426C15.1174 17.3678 13.5913 17.9999 12 17.9999ZM20 8.68994V3.99994H15.31L12 0.689941L8.69 3.99994H4V8.68994L0.690002 11.9999L4 15.3099V19.9999H8.69L12 23.3099L15.31 19.9999H20V15.3099L23.31 11.9999L20 8.68994Z" fill="black"/>
</svg>
