<svg width="24" height="24" viewBox="0 0 24 24" fill="none" xmlns="http://www.w3.org/2000/svg">
<path d="M9.08959 6.94326H7.37663L14.9409 17.0572H16.6539L9.08959 6.94326Z" fill="black"/>
<path fill-rule="evenodd" clip-rule="evenodd" d="M5.09862 21H18.9016C20.0607 21 21.0002 20.0605 21 18.9012V5.0986C21 3.93953 20.0605 3 18.9014 3H5.09862C3.93954 3 3 3.93953 3 5.0986V18.9014C3 20.0605 3.93954 21 5.09862 21ZM10.6032 12.6049L5.76523 6.13599H9.49397L12.6657 10.3768L16.591 6.13599H17.6868L13.1552 11.0316L18.2655 17.8643H14.5368L11.093 13.2595L6.83053 17.8643H5.73474L10.6032 12.6049Z" fill="black"/>
</svg>
