<svg width="24" height="24" viewBox="0 0 24 24" fill="none" xmlns="http://www.w3.org/2000/svg">
<path d="M6.5 20C4.98 20 3.68333 19.4766 2.61 18.43C1.53667 17.3766 1 16.0933 1 14.58C1 13.28 1.39 12.12 2.17 11.1C2.95667 10.08 3.98333 9.42998 5.25 9.14998C5.53667 7.94998 6.24667 6.80998 7.38 5.72998C8.50667 4.64331 9.71333 4.09998 11 4.09998C11.5533 4.09998 12.0233 4.29664 12.41 4.68998C12.8033 5.08331 13 5.55331 13 6.09998V12.15L14.6 10.6L16 12L12 16L8 12L9.4 10.6L11 12.15V6.09998C9.73333 6.33331 8.75 6.94664 8.05 7.93998C7.35 8.93331 7 9.95331 7 11H6.5C5.53333 11 4.71 11.3433 4.03 12.03C3.34333 12.71 3 13.5333 3 14.5C3 15.4666 3.34333 16.3 4.03 17C4.71 17.6666 5.53333 18 6.5 18H18.5C19.2 18 19.79 17.7566 20.27 17.27C20.7567 16.79 21 16.2 21 15.5C21 14.8 20.7567 14.21 20.27 13.73C19.79 13.2433 19.2 13 18.5 13H17V11C17 10.2 16.8167 9.45331 16.45 8.75998C16.0833 8.07331 15.6 7.48664 15 6.99998V4.67998C16.2333 5.25998 17.21 6.11998 17.93 7.25998C18.6433 8.41998 19 9.66664 19 11C20.1533 11.1333 21.1067 11.6333 21.86 12.5C22.62 13.3533 23 14.3533 23 15.5C23 16.7533 22.5633 17.8166 21.69 18.69C20.8167 19.5633 19.7533 20 18.5 20" fill="black"/>
</svg>
