<svg width="24" height="24" viewBox="0 0 24 24" fill="none" xmlns="http://www.w3.org/2000/svg">
<path d="M23.71 11.67C20.5504 8.66777 16.3585 6.99377 12 6.99377C7.64155 6.99377 3.44957 8.66777 0.290001 11.67C0.19732 11.7634 0.123995 11.8742 0.0742302 11.9961C0.0244656 12.1179 -0.000759438 12.2484 1.4555e-06 12.38C0.00110608 12.6423 0.105257 12.8937 0.290001 13.08L2.77 15.56C2.86581 15.6551 2.97988 15.7298 3.10534 15.7797C3.2308 15.8295 3.36505 15.8534 3.5 15.85C3.754 15.8464 3.99713 15.7463 4.18 15.57C4.97492 14.8309 5.87047 14.208 6.84 13.72C7.0083 13.6375 7.15005 13.5094 7.24906 13.3503C7.34807 13.1912 7.40038 13.0074 7.4 12.82V9.71998C8.88617 9.24057 10.4384 8.99761 12 8.99998C13.5593 8.99493 15.1092 9.24143 16.59 9.72998V12.83C16.5896 13.0174 16.6419 13.2012 16.7409 13.3603C16.84 13.5194 16.9817 13.6475 17.15 13.73C18.1247 14.2145 19.024 14.8376 19.82 15.58C20.0029 15.7563 20.246 15.8564 20.5 15.86C20.635 15.8634 20.7692 15.8395 20.8947 15.7897C21.0201 15.7398 21.1342 15.6651 21.23 15.57L23.71 13.09C23.8037 12.997 23.8781 12.8864 23.9289 12.7646C23.9797 12.6427 24.0058 12.512 24.0058 12.38C24.0058 12.248 23.9797 12.1173 23.9289 11.9954C23.8781 11.8735 23.8037 11.7629 23.71 11.67ZM5.4 12.22C4.74234 12.5942 4.11686 13.0223 3.53 13.5L2.46 12.42C3.36431 11.671 4.35061 11.0268 5.4 10.5M20.5 13.5C19.903 13.0247 19.2675 12.5999 18.6 12.23V10.53C19.6578 11.0395 20.6486 11.6776 21.55 12.43L20.5 13.5Z" fill="black"/>
</svg>
