<svg width="24" height="24" viewBox="0 0 24 24" fill="none" xmlns="http://www.w3.org/2000/svg">
<path d="M4.5 11C4.89782 11 5.27936 10.842 5.56066 10.5607C5.84196 10.2794 6 9.89787 6 9.50004C6 9.10222 5.84196 8.72069 5.56066 8.43938C5.27936 8.15808 4.89782 8.00004 4.5 8.00004C4.10218 8.00004 3.72064 8.15808 3.43934 8.43938C3.15804 8.72069 3 9.10222 3 9.50004C3 9.89787 3.15804 10.2794 3.43934 10.5607C3.72064 10.842 4.10218 11 4.5 11ZM22.17 9.17004C22.17 5.30004 19.04 2.17004 15.17 2.17004C13.3135 2.17004 11.533 2.90754 10.2203 4.2203C8.9075 5.53305 8.17 7.31353 8.17 9.17004C8.17 12.64 10.69 15.5 14 16.06V20H6V17H7V13C7 12.7348 6.89464 12.4805 6.70711 12.2929C6.51957 12.1054 6.26522 12 6 12H3C2.73478 12 2.48043 12.1054 2.29289 12.2929C2.10536 12.4805 2 12.7348 2 13V17H3V22H19V20H16V16.12C19.47 15.71 22.17 12.76 22.17 9.17004Z" fill="black"/>
</svg>
