<svg width="24" height="24" viewBox="0 0 24 24" fill="none" xmlns="http://www.w3.org/2000/svg">
<path d="M17 20C16.71 20 16.44 19.94 16.24 19.85C15.53 19.5 15.03 18.97 14.53 17.47C14 15.91 13.06 15.18 12.14 14.47C11.35 13.86 10.53 13.23 9.82 11.94C9.29 11 9 9.92997 9 8.99997C9 6.19997 11.2 3.99997 14 3.99997C16.8 3.99997 19 6.19997 19 8.99997H21C21 5.06997 17.93 1.99997 14 1.99997C10.07 1.99997 7 5.06997 7 8.99997C7 10.26 7.38 11.65 8.07 12.9C9 14.55 10.05 15.38 10.92 16.05C11.73 16.67 12.31 17.12 12.63 18.1C13.23 19.92 14 20.94 15.36 21.65C15.87 21.88 16.43 22 17 22C18.0609 22 19.0783 21.5785 19.8284 20.8284C20.5786 20.0783 21 19.0608 21 18H19C19 18.5304 18.7893 19.0391 18.4142 19.4142C18.0391 19.7893 17.5304 20 17 20ZM7.64 2.63997L6.22 1.21997C4.23 3.20997 3 5.95997 3 8.99997C3 12.04 4.23 14.79 6.22 16.78L7.63 15.37C6 13.74 5 11.5 5 8.99997C5 6.49997 6 4.25997 7.64 2.63997ZM11.5 8.99997C11.5 9.32827 11.5647 9.65337 11.6903 9.95668C11.8159 10.26 12.0001 10.5356 12.2322 10.7677C12.7011 11.2366 13.337 11.5 14 11.5C14.3283 11.5 14.6534 11.4353 14.9567 11.3097C15.26 11.184 15.5356 10.9999 15.7678 10.7677C15.9999 10.5356 16.1841 10.26 16.3097 9.95668C16.4353 9.65337 16.5 9.32827 16.5 8.99997C16.5 8.33693 16.2366 7.70104 15.7678 7.2322C15.2989 6.76336 14.663 6.49997 14 6.49997C13.337 6.49997 12.7011 6.76336 12.2322 7.2322C11.7634 7.70104 11.5 8.33693 11.5 8.99997Z" fill="black"/>
</svg>
