<svg width="24" height="24" viewBox="0 0 24 24" fill="none" xmlns="http://www.w3.org/2000/svg">
<path d="M7.2 9.79999C6 7.49999 7.7 4.79999 10.1 4.29999C13.2 3.29999 17.7 4.69999 17.6 8.49999H14.6C14.6 8.19999 14.5 7.89999 14.5 7.69999C14.3 7.09999 13.9 6.79999 13.3 6.59999C12.5 6.29999 11.2 6.39999 10.5 6.89999C9 8.19999 10.4 9.49999 12 9.99999H7.4C7.3 9.89999 7.3 9.79999 7.2 9.79999ZM21 13V11H3V13H12.6C12.8 13.1 13 13.1 13.2 13.2C13.8 13.5 14.3 13.7 14.5 14.3C14.6 14.7 14.7 15.2 14.5 15.6C14.3 16.1 13.9 16.3 13.4 16.5C11.6 17 9.4 16.3 9.5 14.1H6.5C6.4 16.7 8.6 18.5 11 18.8C14.8 19.6 19.3 17.2 17.3 12.9L21 13Z" fill="black"/>
</svg>
