<svg width="24" height="24" viewBox="0 0 24 24" fill="none" xmlns="http://www.w3.org/2000/svg">
<path d="M16 21H8.00001C7.73479 21 7.48044 20.8946 7.2929 20.7071C7.10537 20.5196 7.00001 20.2652 7.00001 20V12.07L5.70001 13.07C5.31001 13.46 4.68001 13.46 4.29001 13.07L1.46001 10.29C1.07001 9.9 1.07001 9.27 1.46001 8.88L7.34001 3H9.00001C9.00001 4.1 10.34 5 12 5C13.66 5 15 4.1 15 3H16.66L22.54 8.88C22.93 9.27 22.93 9.9 22.54 10.29L19.71 13.12C19.32 13.5 18.69 13.5 18.3 13.12L17 12.12V20C17 20.2652 16.8947 20.5196 16.7071 20.7071C16.5196 20.8946 16.2652 21 16 21Z" fill="black"/>
</svg>
