<svg width="24" height="24" viewBox="0 0 24 24" fill="none" xmlns="http://www.w3.org/2000/svg">
<path d="M12 19H16L14 17H12V19ZM10 15V13H8.00003V15H10ZM10 19V17H8.00003V19H10ZM6.00003 11V9.00003H4.00003V11H6.00003ZM6.00003 15V13H4.00003V15H6.00003ZM6.00003 19V17H4.00003V19H6.00003ZM1.31003 1.78003L22.31 22.69L21 24L18 21H2.00003V5.00003L0.0900269 3.09003L1.31003 1.78003ZM16 11H18V13H16V11ZM8.00003 5.00003V5.91003L5.11003 3.00003H12V7.00003H22V19.92L20 17.91V9.00003H12V9.89003L9.09003 7.00003H10V5.00003H8.00003Z" fill="black"/>
</svg>
