<svg width="24" height="24" viewBox="0 0 24 24" fill="none" xmlns="http://www.w3.org/2000/svg">
<path d="M12 17.9999C10.4087 17.9999 8.88258 17.3678 7.75736 16.2426C6.63214 15.1174 6 13.5912 6 11.9999C6 10.4086 6.63214 8.88252 7.75736 7.7573C8.88258 6.63208 10.4087 5.99994 12 5.99994C13.5913 5.99994 15.1174 6.63208 16.2426 7.7573C17.3679 8.88252 18 10.4086 18 11.9999C18 13.5912 17.3679 15.1174 16.2426 16.2426C15.1174 17.3678 13.5913 17.9999 12 17.9999ZM20 15.3099L23.31 11.9999L20 8.68994V3.99994H15.31L12 0.689941L8.69 3.99994H4V8.68994L0.690002 11.9999L4 15.3099V19.9999H8.69L12 23.3099L15.31 19.9999H20V15.3099Z" fill="black"/>
</svg>
