<svg width="24" height="24" viewBox="0 0 24 24" fill="none" xmlns="http://www.w3.org/2000/svg">
<path d="M4 5H7L9 3H15L17 5H20C20.5304 5 21.0391 5.21071 21.4142 5.58579C21.7893 5.96086 22 6.46957 22 7V19C22 19.5304 21.7893 20.0391 21.4142 20.4142C21.0391 20.7893 20.5304 21 20 21H4C3.46957 21 2.96086 20.7893 2.58579 20.4142C2.21071 20.0391 2 19.5304 2 19V7C2 6.46957 2.21071 5.96086 2.58579 5.58579C2.96086 5.21071 3.46957 5 4 5ZM12 8C10.6739 8 9.40215 8.52678 8.46447 9.46447C7.52678 10.4021 7 11.6739 7 13C7 14.3261 7.52678 15.5979 8.46447 16.5355C9.40215 17.4732 10.6739 18 12 18C13.3261 18 14.5979 17.4732 15.5355 16.5355C16.4732 15.5979 17 14.3261 17 13C17 11.6739 16.4732 10.4021 15.5355 9.46447C14.5979 8.52678 13.3261 8 12 8ZM12 10C12.7956 10 13.5587 10.3161 14.1213 10.8787C14.6839 11.4413 15 12.2044 15 13C15 13.7956 14.6839 14.5587 14.1213 15.1213C13.5587 15.6839 12.7956 16 12 16C11.2044 16 10.4413 15.6839 9.87868 15.1213C9.31607 14.5587 9 13.7956 9 13C9 12.2044 9.31607 11.4413 9.87868 10.8787C10.4413 10.3161 11.2044 10 12 10Z" fill="black"/>
</svg>
