<svg width="24" height="24" viewBox="0 0 24 24" fill="none" xmlns="http://www.w3.org/2000/svg">
<path d="M1.20001 4.47L2.50001 3.2L20 20.72L18.73 22L16.73 20H4.00001C3.46958 20 2.96087 19.7893 2.5858 19.4142C2.21073 19.0391 2.00001 18.5304 2.00001 18V6C2.00001 5.78 2.04001 5.57 2.10001 5.37L1.20001 4.47ZM7.00001 4L9.00001 2H15L17 4H20C20.5304 4 21.0392 4.21071 21.4142 4.58579C21.7893 4.96086 22 5.46957 22 6V18C22 18.6 21.74 19.13 21.32 19.5L16.33 14.5C16.76 13.77 17 12.91 17 12C17 10.6739 16.4732 9.40215 15.5355 8.46447C14.5979 7.52678 13.3261 7 12 7C11.09 7 10.23 7.24 9.50001 7.67L5.82001 4H7.00001ZM7.00001 12C7.00001 13.3261 7.5268 14.5979 8.46448 15.5355C9.40216 16.4732 10.6739 17 12 17C12.5 17 13.03 16.92 13.5 16.77L11.72 15C10.29 14.85 9.15001 13.71 9.00001 12.28L7.23001 10.5C7.08001 10.97 7.00001 11.5 7.00001 12ZM12 9C12.7957 9 13.5587 9.31607 14.1213 9.87868C14.6839 10.4413 15 11.2044 15 12C15 12.35 14.94 12.69 14.83 13L11 9.17C11.31 9.06 11.65 9 12 9Z" fill="black"/>
</svg>
