<svg width="24" height="24" viewBox="0 0 24 24" fill="none" xmlns="http://www.w3.org/2000/svg">
<path d="M5 3C3.89543 3 3 3.89539 3 5V19C3 20.1046 3.89543 21 5 21H12.6144V14.0295H10.2686V11.3129H12.6144V9.30957C12.6144 6.98462 14.0343 5.71863 16.1084 5.71863C17.1018 5.71863 17.9556 5.7926 18.2046 5.82568V8.25537L16.766 8.25598C15.6381 8.25598 15.4197 8.79199 15.4197 9.57849V11.3129H18.1097L17.7594 14.0295H15.4197V21H19C20.1046 21 21 20.1046 21 19V5C21 3.89539 20.1046 3 19 3H5Z" fill="black"/>
</svg>
