<svg width="24" height="24" viewBox="0 0 24 24" fill="none" xmlns="http://www.w3.org/2000/svg">
<path d="M3.41 1.85999L2 3.26999L4.73 5.99999H4C3.73478 5.99999 3.48043 6.10534 3.29289 6.29288C3.10536 6.48041 3 6.73477 3 6.99999V17C3 17.2652 3.10536 17.5196 3.29289 17.7071C3.48043 17.8946 3.73478 18 4 18H16C16.21 18 16.39 17.92 16.55 17.82L19.73 21L21.14 19.59L12.28 10.73L3.41 1.85999ZM5 16V7.99999H6.73L14.73 16H5ZM15 7.99999V10.61L21 16.61V6.49999L17 10.5V6.99999C17 6.73477 16.8946 6.48041 16.7071 6.29288C16.5196 6.10534 16.2652 5.99999 16 5.99999H10.39L12.39 7.99999H15Z" fill="black"/>
</svg>
