<svg width="24" height="24" viewBox="0 0 24 24" fill="none" xmlns="http://www.w3.org/2000/svg">
<path d="M6.5 20.0001C4.98 20.0001 3.68333 19.4767 2.61 18.4301C1.53667 17.3767 1 16.0934 1 14.5801C1 13.2801 1.39 12.1201 2.17 11.1001C2.95667 10.0801 3.98333 9.43008 5.25 9.15008C5.63667 7.80341 6.35 6.67008 7.39 5.75008C8.43 4.83674 9.63333 4.28008 11 4.08008V12.1501L9.4 10.6001L8 12.0001L12 16.0001L16 12.0001L14.6 10.6001L13 12.1501V4.08008C14.72 4.31341 16.15 5.08341 17.29 6.39008C18.43 7.69674 19 9.23341 19 11.0001C20.1533 11.1334 21.1067 11.6334 21.86 12.5001C22.62 13.3534 23 14.3534 23 15.5001C23 16.7534 22.5633 17.8167 21.69 18.6901C20.8167 19.5634 19.7533 20.0001 18.5 20.0001H6.5Z" fill="black"/>
</svg>
