<svg width="24" height="24" viewBox="0 0 24 24" fill="none" xmlns="http://www.w3.org/2000/svg">
<path d="M14 14.5001V12.0001H10V15.0001H8V11.0001C8 10.7348 8.10535 10.4805 8.29289 10.293C8.48043 10.1054 8.73478 10.0001 9 10.0001H14V7.50006L17.5 11.0001M21.71 11.2901L12.71 2.29006H12.7C12.31 1.90006 11.68 1.90006 11.29 2.29006L2.29 11.2901C1.9 11.6801 1.9 12.3201 2.29 12.7101L11.29 21.7101C11.68 22.0901 12.31 22.1001 12.71 21.7101L21.71 12.7101C22.1 12.3201 22.1 11.6801 21.71 11.2901Z" fill="black"/>
</svg>
