<svg width="24" height="24" viewBox="0 0 24 24" fill="none" xmlns="http://www.w3.org/2000/svg">
<path d="M22.61 18.36L18.36 22.61L13.16 17.41L14.93 15.64L15.93 16.64L18.4 14.16L19.82 15.58L18.36 17L19.42 18L20.84 16.6L22.61 18.36ZM6.61001 10.83L1.39001 5.64001L5.64001 1.39001L7.40001 3.16001L4.93001 5.64001L6.00001 6.70001L8.46001 4.22001L9.88001 5.64001L8.46001 7.05001L9.46001 8.05001L6.61001 10.83ZM14.06 9.00001L15 9.93001L5.92001 19H5.00001V18.08L14.06 9.00001ZM17.67 3.00001C17.42 3.00001 17.16 3.09001 16.96 3.29001L15.12 5.12001L18.87 8.87001L20.71 7.00001C21.1 6.61001 21.1 6.00001 20.71 5.59001L18.37 3.29001C18.18 3.10001 17.93 3.00001 17.67 3.00001ZM14.06 6.18001L3.00001 17.25V21H6.75001L17.81 9.93001L14.06 6.18001Z" fill="black"/>
</svg>
