<svg width="24" height="24" viewBox="0 0 24 24" fill="none" xmlns="http://www.w3.org/2000/svg">
<path d="M6.90998 5.50004L9.20998 7.79004L7.78998 9.21004L5.49998 6.91004L3.20998 9.21004L1.78998 7.79004L4.08998 5.50004L1.78998 3.21004L3.20998 1.79004L5.49998 4.09004L7.78998 1.79004L9.20998 3.21004M22.21 16.21L20.79 14.79L18.5 17.09L16.21 14.79L14.79 16.21L17.09 18.5L14.79 20.79L16.21 22.21L18.5 19.91L20.79 22.21L22.21 20.79L19.91 18.5M20.4 6.83004L17.18 11L15.6 9.73004L16.77 8.23004C15.2777 8.53318 13.8855 9.20678 12.7217 10.1889C11.5579 11.1709 10.6598 12.4299 10.11 13.85C10.9804 14.4777 11.5978 15.3958 11.8509 16.4386C12.104 17.4814 11.9762 18.5803 11.4903 19.5372C11.0045 20.494 10.1928 21.2458 9.20154 21.6568C8.21028 22.0678 7.10476 22.1111 6.08441 21.7788C5.06405 21.4465 4.19603 20.7605 3.63693 19.8446C3.07783 18.9286 2.86444 17.843 3.03527 16.7836C3.20611 15.7242 3.7499 14.7607 4.56857 14.0669C5.38724 13.3732 6.42689 12.9948 7.49998 13C7.76197 13.0011 8.02323 13.0279 8.27998 13.08C8.9728 11.3607 10.079 9.83874 11.5007 8.64911C12.9223 7.45948 14.6154 6.63889 16.43 6.26004L15 5.18004L16.27 3.60004M9.99998 17.5C9.99998 17.0056 9.85336 16.5222 9.57865 16.1111C9.30395 15.7 8.9135 15.3796 8.45669 15.1903C7.99987 15.0011 7.4972 14.9516 7.01225 15.0481C6.5273 15.1445 6.08184 15.3826 5.73221 15.7323C5.38258 16.0819 5.14448 16.5274 5.04801 17.0123C4.95155 17.4973 5.00106 17.9999 5.19028 18.4567C5.3795 18.9136 5.69993 19.304 6.11105 19.5787C6.52218 19.8534 7.00552 20 7.49998 20C8.16302 20 8.7989 19.7366 9.26775 19.2678C9.73659 18.799 9.99998 18.1631 9.99998 17.5Z" fill="black"/>
</svg>
