<svg width="24" height="24" viewBox="0 0 24 24" fill="none" xmlns="http://www.w3.org/2000/svg">
<path d="M5.5 20C3.98 20 2.68333 19.4767 1.61 18.43C0.536667 17.3767 0 16.0933 0 14.58C0 13.28 0.39 12.12 1.17 11.1C1.95667 10.08 2.98333 9.43 4.25 9.15C4.67 7.61667 5.50333 6.37667 6.75 5.43C8.00333 4.47667 9.42 4 11 4C12.9533 4 14.6067 4.68 15.96 6.04C17.32 7.39333 18 9.04667 18 11C19.1533 11.1333 20.1067 11.6333 20.86 12.5C21.62 13.3533 22 14.3533 22 15.5C22 16.7533 21.5633 17.8167 20.69 18.69C19.8167 19.5633 18.7533 20 17.5 20M5.5 18H17.5C18.2 18 18.79 17.7567 19.27 17.27C19.7567 16.79 20 16.2 20 15.5C20 14.8 19.7567 14.21 19.27 13.73C18.79 13.2433 18.2 13 17.5 13H16V11C16 9.62 15.5133 8.44 14.54 7.46C13.5667 6.48667 12.3867 6 11 6C9.62 6 8.44 6.48667 7.46 7.46C6.48667 8.44 6 9.62 6 11H5.5C4.53333 11 3.71 11.3433 3.03 12.03C2.34333 12.71 2 13.5333 2 14.5C2 15.4667 2.34333 16.3 3.03 17C3.71 17.6667 4.53333 18 5.5 18Z" fill="black"/>
</svg>
