<svg width="24" height="24" viewBox="0 0 24 24" fill="none" xmlns="http://www.w3.org/2000/svg">
<path d="M9.94737 3C13.7843 3 16.8947 6.11044 16.8947 9.94737C16.8947 11.5242 16.3694 12.9783 15.4842 14.1443L20.7225 19.3827C21.0925 19.7527 21.0925 20.3526 20.7225 20.7225C20.3862 21.0589 19.8599 21.0894 19.489 20.8143L19.3827 20.7225L14.1443 15.4842C12.9783 16.3694 11.5242 16.8947 9.94737 16.8947C6.11044 16.8947 3 13.7843 3 9.94737C3 6.11044 6.11044 3 9.94737 3ZM9.94737 4.89474C7.15688 4.89474 4.89474 7.15688 4.89474 9.94737C4.89474 12.7379 7.15688 15 9.94737 15C12.7379 15 15 12.7379 15 9.94737C15 7.15688 12.7379 4.89474 9.94737 4.89474Z" fill="black"/>
</svg>
