<svg width="24" height="25" viewBox="0 0 24 25" fill="none" xmlns="http://www.w3.org/2000/svg">
<path d="M7.5 5.00002C7.9 4.60002 8.5 4.60002 8.9 5.00002L11.8 8.00002C11 8.40002 10.6 8.60002 10.2 9.20002L7.5 6.50002C7.1 6.10002 7.1 5.40002 7.5 5.00002ZM6.3 8.20002C6.7 7.80002 7.3 7.80002 7.7 8.20002L9.6 10.2C9.4 10.8 9.3 11.5 9.4 12H8.6L6.3 9.60003C5.9 9.20003 5.9 8.60002 6.3 8.20002ZM19 22.5C19 23.9 17.9 25 16.5 25H5.5C5 25 4.5 24.5 4.5 24C4.5 23.5 5 23 5.5 23H10V22H4C3.5 22 3 21.5 3 21C3 20.5 3.5 20 4 20H10V19H3C2.5 19 2 18.5 2 18C2 17.5 2.5 17 3 17H10V16H4.5C4 16 3.5 15.5 3.5 15C3.5 14.5 4 14 4.5 14H12.5L11.6 12.1C11.2 11.4 11.5 10.5 12.3 10.1L12.5 10L18.2 15.5C18.7 16 19 16.6 19 17.3V22.5ZM22 12.3C22 13 21.7 13.6 21.2 14.1L20.3 14.9C20.1 14.6 19.9 14.3 19.6 14L19 13.4L15.4 10L12.7 7.60002L8.9 3.60002C8.5 3.20002 8.5 2.60002 8.9 2.20002C9.3 1.80002 9.9 1.80002 10.3 2.20002L15.1 7.30002L15.8 6.60002L12 2.60002C11.6 2.20002 11.6 1.60002 12 1.20002C12.4 0.800024 13 0.800024 13.4 1.20002L18.9 7.00002L19.6 5.00002C20.1 4.40002 21 4.00002 21.7 4.20002L22 4.30002V12.3Z" fill="black"/>
</svg>
