<svg width="24" height="24" viewBox="0 0 24 24" fill="none" xmlns="http://www.w3.org/2000/svg">
<path d="M17 12C17 12.54 16.9 13.05 16.74 13.54L15 11.78C14.87 10.3 13.7 9.13001 12.22 9.00001L10.46 7.26001C10.95 7.10001 11.46 7.00001 12 7.00001C14.76 7.00001 17 9.24001 17 12ZM9.87999 4.00001H14.12L15.95 6.00001H20V16.8L21.88 18.68C21.96 18.47 22 18.24 22 18V6.00001C22 4.89001 21.11 4.00001 20 4.00001H16.83L15 2.00001H8.99999L7.17999 4.00001L8.59999 5.40001L9.87999 4.00001ZM22.11 21.46L20.84 22.73L18.11 20H3.99999C2.89999 20 1.99999 19.11 1.99999 18V6.00001C1.99999 5.42001 2.24999 4.90001 2.64999 4.54001L1.10999 3.00001L2.38999 1.73001L22.11 21.46ZM8.99999 12C8.99999 13.66 10.34 15 12 15C12.33 15 12.65 14.93 12.94 14.83L9.16999 11.06C9.06999 11.36 8.99999 11.67 8.99999 12ZM16.11 18L14.45 16.34C13.72 16.75 12.89 17 12 17C9.23999 17 6.99999 14.76 6.99999 12C6.99999 11.11 7.24999 10.28 7.65999 9.55001L4.10999 6.00001H3.99999V18H16.11Z" fill="black"/>
</svg>
