<svg width="24" height="24" viewBox="0 0 24 24" fill="none" xmlns="http://www.w3.org/2000/svg">
<path d="M23 8.00002H17C16.7348 8.00002 16.4804 8.10538 16.2929 8.29292C16.1054 8.48045 16 8.73481 16 9.00002V13.18L18 15.18V10H22V17H19.82L22.82 20H23C23.2652 20 23.5196 19.8947 23.7071 19.7071C23.8946 19.5196 24 19.2652 24 19V9.00002C24 8.73481 23.8946 8.48045 23.7071 8.29292C23.5196 8.10538 23.2652 8.00002 23 8.00002ZM4 6.27002L14.73 17H4V6.27002ZM1.92 1.65002L0.65 2.92002L2.47 4.74002C2.18 5.08002 2 5.50002 2 6.00002V17H0V20H17.73L20.08 22.35L21.35 21.08L3.89 3.62002L1.92 1.65002ZM22 6.00002V4.00002H6.82L8.82 6.00002H22Z" fill="black"/>
</svg>
