<svg width="0" height="0" style="position:absolute"><symbol fill="none" viewBox="0 0 24 24" id="icon-account-box" xmlns="http://www.w3.org/2000/svg"><path d="M6 17c0-2 4-3.1 6-3.1s6 1.1 6 3.1v1H6m9-9a3 3 0 1 1-6 0 3 3 0 0 1 6 0ZM3 5v14a2 2 0 0 0 2 2h14a2 2 0 0 0 2-2V5a2 2 0 0 0-2-2H5a2 2 0 0 0-2 2Z" fill="#000"/></symbol><symbol fill="none" viewBox="0 0 24 24" id="icon-account-circle" xmlns="http://www.w3.org/2000/svg"><path d="M12 19.2c-2.5 0-4.71-1.28-6-3.2.03-2 4-3.1 6-3.1s5.97 1.1 6 3.1a7.232 7.232 0 0 1-6 3.2ZM12 5a3 3 0 1 1 0 6 3 3 0 0 1 0-6Zm0-3a10 10 0 1 0 10 10c0-5.53-4.5-10-10-10Z" fill="#000"/></symbol><symbol fill="none" viewBox="0 0 24 24" id="icon-account-circle-outline" xmlns="http://www.w3.org/2000/svg"><path d="M12 2a10 10 0 1 0 0 20 10 10 0 0 0 0-20ZM7.07 18.28c.43-.9 3.05-1.78 4.93-1.78s4.5.88 4.93 1.78A7.893 7.893 0 0 1 12 20c-1.86 0-3.57-.64-4.93-1.72Zm11.29-1.45c-1.43-1.74-4.9-2.33-6.36-2.33s-4.93.59-6.36 2.33A7.928 7.928 0 0 1 4 12c0-4.41 3.59-8 8-8s8 3.59 8 8c0 1.82-.62 3.5-1.64 4.83ZM12 6c-1.94 0-3.5 1.56-3.5 3.5S10.06 13 12 13s3.5-1.56 3.5-3.5S13.94 6 12 6Zm0 5a1.5 1.5 0 1 1 0-3 1.5 1.5 0 0 1 0 3Z" fill="#000"/></symbol><symbol fill="none" viewBox="0 0 24 24" id="icon-account-group" xmlns="http://www.w3.org/2000/svg"><path d="M12 5a3.5 3.5 0 1 1 0 7 3.5 3.5 0 0 1 0-7ZM5 7.5c.56 0 1.08.15 1.53.42-.15 1.43.27 2.85 1.13 3.96A2.997 2.997 0 0 1 2 10.5a3 3 0 0 1 3-3Zm14 0a3 3 0 0 1 0 6c-1.16 0-2.16-.66-2.66-1.62a5.536 5.536 0 0 0 1.13-3.96c.45-.27.97-.42 1.53-.42ZM5.5 17.75C5.5 15.68 8.41 14 12 14s6.5 1.68 6.5 3.75v1.75h-13v-1.75ZM0 19.5V18c0-1.39 1.89-2.56 4.45-2.9-.59.68-.95 1.62-.95 2.65v1.75H0Zm24 0h-3.5v-1.75c0-1.03-.36-1.97-.95-2.65 2.56.34 4.45 1.51 4.45 2.9v1.5Z" fill="#000"/></symbol><symbol fill="none" viewBox="0 0 24 24" id="icon-account-group-outline" xmlns="http://www.w3.org/2000/svg"><path d="M12 5a3.5 3.5 0 1 0 0 7 3.5 3.5 0 0 0 0-7Zm0 2a1.5 1.5 0 1 1 0 3 1.5 1.5 0 0 1 0-3ZM5.5 8A2.5 2.5 0 0 0 3 10.5c0 .94.53 1.75 1.29 2.18.36.2.77.32 1.21.32.44 0 .85-.12 1.21-.32.37-.21.68-.51.91-.87A5.42 5.42 0 0 1 6.5 8.5v-.28c-.3-.14-.64-.22-1-.22Zm13 0c-.36 0-.7.08-1 .22v.28c0 1.2-.39 2.36-1.12 3.31.12.19.25.34.4.49a2.482 2.482 0 0 0 1.72.7c.44 0 .85-.12 1.21-.32.76-.43 1.29-1.24 1.29-2.18A2.5 2.5 0 0 0 18.5 8ZM12 14c-2.34 0-7 1.17-7 3.5V19h14v-1.5c0-2.33-4.66-3.5-7-3.5Zm-7.29.55C2.78 14.78 0 15.76 0 17.5V19h3v-1.93c0-1.01.69-1.85 1.71-2.52Zm14.58 0c1.02.67 1.71 1.51 1.71 2.52V19h3v-1.5c0-1.74-2.78-2.72-4.71-2.95ZM12 16c1.53 0 3.24.5 4.23 1H7.77c.99-.5 2.7-1 4.23-1Z" fill="#000"/></symbol><symbol fill="none" viewBox="0 0 24 24" id="icon-account-multiple-outline" xmlns="http://www.w3.org/2000/svg"><path d="M13.07 10.41a5 5 0 0 0 0-5.82A3.39 3.39 0 0 1 15 4a3.5 3.5 0 1 1 0 7 3.39 3.39 0 0 1-1.93-.59ZM5.5 7.5a3.5 3.5 0 1 1 7 0 3.5 3.5 0 0 1-7 0Zm2 0a1.5 1.5 0 1 0 3 0 1.5 1.5 0 0 0-3 0ZM16 17v2H2v-2s0-4 7-4 7 4 7 4Zm-2 0c-.14-.78-1.33-2-5-2s-4.93 1.31-5 2m11.95-4A5.32 5.32 0 0 1 18 17v2h4v-2s0-3.63-6.06-4h.01Z" fill="#000"/></symbol><symbol fill="none" viewBox="0 0 24 24" id="icon-bell-outline" xmlns="http://www.w3.org/2000/svg"><path d="M10 20h4c0 1.1-.9 2-2 2s-2-.9-2-2Zm11-2v1H3v-1l2-2v-6c0-3.1 2-5.8 5-6.7V3c0-1.1.9-2 2-2s2 .9 2 2v.3c3 .9 5 3.6 5 6.7v6l2 2Zm-4-8c0-2.8-2.2-5-5-5s-5 2.2-5 5v7h10v-7Z" fill="#000"/></symbol><symbol fill="none" viewBox="0 0 24 24" id="icon-bookmark" xmlns="http://www.w3.org/2000/svg"><path d="M17 3H7a2 2 0 0 0-2 2v16l7-3 7 3V5a2 2 0 0 0-2-2Z" fill="#000"/></symbol><symbol fill="none" viewBox="0 0 24 24" id="icon-bookmark-outline" xmlns="http://www.w3.org/2000/svg"><path d="m17 18-5-2.18L7 18V5h10m0-2H7a2 2 0 0 0-2 2v16l7-3 7 3V5a2 2 0 0 0-2-2Z" fill="#000"/></symbol><symbol fill="none" viewBox="0 0 24 24" id="icon-cached" xmlns="http://www.w3.org/2000/svg"><path d="m19 8-4 4h3a6 6 0 0 1-6 6c-1 0-1.97-.25-2.8-.7l-1.46 1.46A7.93 7.93 0 0 0 12 20a8 8 0 0 0 8-8h3M6 12a6 6 0 0 1 6-6c1 0 1.97.25 2.8.7l1.46-1.46A7.93 7.93 0 0 0 12 4a8 8 0 0 0-8 8H1l4 4 4-4" fill="#000"/></symbol><symbol fill="none" viewBox="0 0 24 24" id="icon-calendar" xmlns="http://www.w3.org/2000/svg"><path d="M19 20H5V9h14m-3-7v2H8V2H6v2H5c-1.11 0-2 .89-2 2v14a2 2 0 0 0 2 2h14a2 2 0 0 0 2-2V6a2 2 0 0 0-2-2h-1V2m-1 11h-5v5h5v-5Z" fill="#000"/></symbol><symbol fill="none" viewBox="0 0 24 24" id="icon-calendar-clock" xmlns="http://www.w3.org/2000/svg"><path d="M14 13h1.5v2.82l2.44 1.41-.75 1.3L14 16.69V13Zm4-5H4v11h4.67c-.43-.91-.67-1.93-.67-3a7 7 0 0 1 7-7c1.07 0 2.09.24 3 .67V8ZM4 21a2 2 0 0 1-2-2V5c0-1.11.89-2 2-2h1V1h2v2h8V1h2v2h1a2 2 0 0 1 2 2v6.1c1.24 1.26 2 2.99 2 4.9a7 7 0 0 1-7 7c-1.91 0-3.64-.76-4.9-2H4Zm11-9.85a4.85 4.85 0 1 0 0 9.7 4.85 4.85 0 0 0 0-9.7Z" fill="#000"/></symbol><symbol fill="none" viewBox="0 0 24 24" id="icon-check" xmlns="http://www.w3.org/2000/svg"><path d="M21 7 9 19l-5.5-5.5 1.41-1.41L9 16.17 19.59 5.59 21 7Z" fill="#000"/></symbol><symbol fill="none" viewBox="0 0 24 24" id="icon-check-all" xmlns="http://www.w3.org/2000/svg"><path d="M.41 13.41 6 19l1.41-1.42L1.83 12m20.41-6.42L11.66 16.17 7.5 12l-1.43 1.41L11.66 19l12-12M18 7l-1.41-1.42-6.35 6.35 1.42 1.41L18 7Z" fill="#000"/></symbol><symbol fill="none" viewBox="0 0 24 24" id="icon-check-bold" xmlns="http://www.w3.org/2000/svg"><path d="m9 20.42-6.21-6.21 2.83-2.83L9 14.77l9.88-9.89 2.83 2.83L9 20.42Z" fill="#000"/></symbol><symbol fill="none" viewBox="0 0 24 24" id="icon-check-outline" xmlns="http://www.w3.org/2000/svg"><path d="M19.78 2.2 24 6.42 8.44 22 0 13.55l4.22-4.22 4.22 4.22L19.78 2.2Zm0 2.8L8.44 16.36l-4.22-4.17-1.41 1.36 5.63 5.62L21.19 6.42 19.78 5Z" fill="#000"/></symbol><symbol fill="none" viewBox="0 0 24 24" id="icon-chevron-down" xmlns="http://www.w3.org/2000/svg"><path d="M16.59 8 12 12.58 7.41 8 6 9.41l6 6 6-6L16.59 8Z" fill="#000"/></symbol><symbol fill="none" viewBox="0 0 24 24" id="icon-chevron-left" xmlns="http://www.w3.org/2000/svg"><path d="M15.41 16.58 10.83 12l4.58-4.59L14 6l-6 6 6 6 1.41-1.42Z" fill="#000"/></symbol><symbol fill="none" viewBox="0 0 24 24" id="icon-chevron-right" xmlns="http://www.w3.org/2000/svg"><path d="M8.59 16.58 13.17 12 8.59 7.41 10 6l6 6-6 6-1.41-1.42Z" fill="#000"/></symbol><symbol fill="none" viewBox="0 0 24 24" id="icon-chevron-up" xmlns="http://www.w3.org/2000/svg"><path d="M7.41 15.41 12 10.83l4.59 4.58L18 14l-6-6-6 6 1.41 1.41Z" fill="#000"/></symbol><symbol fill="none" viewBox="0 0 24 24" id="icon-clear" xmlns="http://www.w3.org/2000/svg"><path d="M19 6.41 17.59 5 12 10.59 6.41 5 5 6.41 10.59 12 5 17.59 6.41 19 12 13.41 17.59 19 19 17.59 13.41 12 19 6.41Z" fill="#000"/></symbol><symbol fill="none" viewBox="0 0 24 24" id="icon-minus" xmlns="http://www.w3.org/2000/svg"><path d="M17.5 12.5H7V11h10.5v1.5Z" fill="#000"/></symbol><symbol fill="none" viewBox="0 0 24 24" id="icon-plus-box" xmlns="http://www.w3.org/2000/svg"><path d="M17 13h-4v4h-2v-4H7v-2h4V7h2v4h4m2-8H5c-1.11 0-2 .89-2 2v14a2 2 0 0 0 2 2h14a2 2 0 0 0 2-2V5a2 2 0 0 0-2-2Z" fill="#000"/></symbol><symbol fill="none" viewBox="0 0 24 24" id="icon-star" xmlns="http://www.w3.org/2000/svg"><path d="M12 17.27 18.18 21l-1.64-7.03L22 9.24l-7.19-.62L12 2 9.19 8.62 2 9.24l5.45 4.73L5.82 21 12 17.27Z" fill="#000"/></symbol></svg>